<svg xmlns="http://www.w3.org/2000/svg" width="64.819" height="60.821" viewBox="0 0 64.819 60.821">
  <defs>
    <style>
      .cls-1 {
        fill: #fff;
      }
    </style>
  </defs>
  <path id="패스_1312" data-name="패스 1312" class="cls-1" d="M10.309,71.018c-.136,0-.273,0-.41-.008a10.277,10.277,0,0,1-6.836-3.054A10.278,10.278,0,0,1,.009,61.12a8.908,8.908,0,0,1,2.575-6.76L43.446,13.5a11.4,11.4,0,0,1,8.646-3.29A13.484,13.484,0,0,1,64.809,22.925a11.392,11.392,0,0,1-3.29,8.646L30.727,62.363a1.471,1.471,0,1,1-2.08-2.08L59.439,29.491a8.482,8.482,0,0,0,2.431-6.444,10.545,10.545,0,0,0-9.9-9.9,8.478,8.478,0,0,0-6.444,2.431L4.664,56.44c-2.47,2.469-2.254,6.7.479,9.436a7.343,7.343,0,0,0,4.878,2.2,6.014,6.014,0,0,0,4.557-1.716L47.8,33.133a3.982,3.982,0,0,0-.319-5.6,4.406,4.406,0,0,0-2.926-1.32,3.516,3.516,0,0,0-2.671,1L18.732,50.369a1.471,1.471,0,0,1-2.08-2.08L39.8,25.136a6.405,6.405,0,0,1,4.873-1.86,7.337,7.337,0,0,1,4.883,2.179,6.918,6.918,0,0,1,.32,9.757L16.658,68.435A8.871,8.871,0,0,1,10.309,71.018Z" transform="translate(-0.001 -10.197)"/>
</svg>
