<svg xmlns="http://www.w3.org/2000/svg" width="308" height="326.5" viewBox="0 0 308 326.5">
  <defs>
    <style>
      .cls-1, .cls-5 {
        fill: #000070;
      }

      .cls-1 {
        font-size: 24px;
        font-family: NotoSansKR-Regular, Noto Sans KR;
        letter-spacing: -0.025em;
      }

      .cls-2 {
        fill: #fff;
      }

      .cls-3 {
        fill: #3f3d56;
      }

      .cls-4 {
        fill: #e6e6e6;
      }

      .cls-6 {
        fill: #ccc;
      }

      .cls-7 {
        fill: none;
        stroke: #aeaeff;
        stroke-width: 4px;
      }
    </style>
  </defs>
  <g id="그룹_952" data-name="그룹 952" transform="translate(-60 -200)">
    <text id="제출이_완료되었습니다" data-name="제출이 완료되었습니다" class="cls-1" transform="translate(104 228)"><tspan x="0" y="0">제출이 완료되었습니다</tspan></text>
    <g id="그룹_913" data-name="그룹 913" transform="translate(104 274.062)">
      <g id="그룹_109" data-name="그룹 109" transform="translate(0 0)">
        <path id="패스_555" data-name="패스 555" class="cls-2" d="M630.008,128.073h-.073l-42.391,18.1-58,24.766a1.871,1.871,0,0,1-1.432.008l-59.838-24.825L424.842,128.1l-.066-.029H424.7a2.587,2.587,0,0,0-2.585,2.585V242.911A2.588,2.588,0,0,0,424.7,245.5H630.008a2.587,2.587,0,0,0,2.585-2.585V130.658A2.587,2.587,0,0,0,630.008,128.073Z" transform="translate(-421.563 -56.557)"/>
        <path id="패스_556" data-name="패스 556" class="cls-3" d="M631.333,79.718a.37.37,0,0,1-.211-.066L529,8.532a1.851,1.851,0,0,0-2.115,0L425.5,79.651a.369.369,0,1,1-.425-.6L526.462,7.931a2.594,2.594,0,0,1,2.962,0l102.121,71.12a.369.369,0,0,1-.211.672Z" transform="translate(-422.704 -7.464)"/>
        <path id="패스_557" data-name="패스 557" class="cls-4" d="M435.67,84.348l96.749-71.7L629.9,89.45l-92.5,54.834-50.219-11.446Z" transform="translate(-427.08 -9.573)"/>
        <path id="패스_560" data-name="패스 560" class="cls-2" d="M559.442,128.811a2.788,2.788,0,0,1-1.06-.208l-59.668-24.758v-77.5a2.588,2.588,0,0,1,2.585-2.585h114.47a2.588,2.588,0,0,1,2.585,2.585V103.9l-.112.048-57.708,24.644A2.805,2.805,0,0,1,559.442,128.811Z" transform="translate(-452.742 -14.099)"/>
        <path id="패스_561" data-name="패스 561" class="cls-3" d="M559.315,128.869a2.976,2.976,0,0,1-1.13-.221L498.4,103.842V26.222a2.773,2.773,0,0,1,2.77-2.769H615.641a2.772,2.772,0,0,1,2.769,2.769v77.673l-57.932,24.74A2.994,2.994,0,0,1,559.315,128.869Zm-60.174-25.52,59.326,24.616a2.26,2.26,0,0,0,1.724-.01l57.482-24.548V26.222a2.033,2.033,0,0,0-2.031-2.031H501.172a2.033,2.033,0,0,0-2.031,2.031Z" transform="translate(-452.615 -13.972)"/>
        <path id="패스_562" data-name="패스 562" class="cls-3" d="M629.074,128.073H629l-42.39,18.1-58,24.766a1.871,1.871,0,0,1-1.433.008L467.34,146.122,423.908,128.1l-.066-.029h-.074a2.587,2.587,0,0,0-2.585,2.585V242.911a2.588,2.588,0,0,0,2.585,2.585H629.074a2.588,2.588,0,0,0,2.585-2.585V130.658A2.587,2.587,0,0,0,629.074,128.073Zm1.846,114.838a1.847,1.847,0,0,1-1.846,1.846H423.768a1.847,1.847,0,0,1-1.846-1.846V130.658a1.851,1.851,0,0,1,1.777-1.846l43.642,18.108,59.554,24.711a2.632,2.632,0,0,0,2.009-.011l57.707-24.644,42.539-18.163a1.853,1.853,0,0,1,1.772,1.846Z" transform="translate(-421.183 -56.557)"/>
        <path id="패스_563" data-name="패스 563" class="cls-5" d="M555.555,68.563H514.937a2.954,2.954,0,0,1,0-5.908h40.618a2.954,2.954,0,0,1,0,5.908Z" transform="translate(-458.144 -29.929)"/>
        <path id="패스_564" data-name="패스 564" class="cls-5" d="M534.5,47.39H514.934a2.954,2.954,0,1,1,0-5.908H534.5a2.954,2.954,0,0,1,0,5.908Z" transform="translate(-458.141 -21.311)"/>
        <path id="패스_565" data-name="패스 565" class="cls-6" d="M606.223,118.382H544.188a2.954,2.954,0,0,1,0-5.908h62.035a2.954,2.954,0,0,1,0,5.908Z" transform="translate(-470.052 -50.208)"/>
        <path id="패스_566" data-name="패스 566" class="cls-6" d="M606.218,141.423H544.183a2.954,2.954,0,1,1,0-5.908h62.035a2.954,2.954,0,0,1,0,5.908Z" transform="translate(-470.047 -59.587)"/>
        <ellipse id="타원_344" data-name="타원 344" class="cls-5" cx="28.089" cy="28.089" rx="28.089" ry="28.089" transform="translate(178.657 44.497)"/>
        <path id="패스_567" data-name="패스 567" class="cls-2" d="M759.568,133.612l-8.407-10.81,4.889-3.8,3.98,5.118,13.448-14.2,4.5,4.26Z" transform="translate(-555.499 -49.169)"/>
      </g>
      <g id="Group_16" data-name="Group 16" transform="translate(54.371 147.565)">
        <path id="Path_204" data-name="Path 204" class="cls-4" d="M9.15,18.343A9.171,9.171,0,0,1,9.14,0H92.621a9.171,9.171,0,1,1,0,18.342Z" transform="translate(0.026 -0.001)"/>
        <path id="Path_205" data-name="Path 205" class="cls-2" d="M13.861,5.887a7.975,7.975,0,1,0,0,15.95H97.332a7.975,7.975,0,1,0,0-15.95Z" transform="translate(-4.684 -4.691)"/>
        <rect id="Rectangle_15" data-name="Rectangle 15" class="cls-4" width="0.266" height="15.95" transform="translate(34.231 1.196)"/>
        <rect id="Rectangle_17" data-name="Rectangle 17" class="cls-4" width="0.266" height="15.95" transform="translate(67.327 1.196)"/>
        <rect id="Rectangle_7" data-name="Rectangle 7" class="cls-5" width="32.83" height="15.95" transform="translate(34.497 1.196)"/>
        <path id="Path_198" data-name="Path 198" class="cls-2" d="M231.435,21.2a4.878,4.878,0,1,0,4.878,4.878,4.878,4.878,0,0,0-4.878-4.878Zm0,1.463a1.463,1.463,0,1,1-1.463,1.463,1.463,1.463,0,0,1,1.463-1.463Zm0,7.044a3.553,3.553,0,0,1-2.927-1.562c.023-.976,1.951-1.512,2.927-1.512s2.9.537,2.927,1.512A3.559,3.559,0,0,1,231.435,29.707Z" transform="translate(-180.508 -16.891)"/>
        <path id="Path_200" data-name="Path 200" class="cls-4" d="M68.584,21.2a4.878,4.878,0,1,0,4.878,4.878A4.878,4.878,0,0,0,68.584,21.2Zm0,1.463a1.463,1.463,0,1,1-1.463,1.463,1.463,1.463,0,0,1,1.463-1.463Zm0,7.044a3.553,3.553,0,0,1-2.927-1.562c.023-.976,1.951-1.512,2.927-1.512s2.9.537,2.927,1.512A3.559,3.559,0,0,1,68.584,29.707Z" transform="translate(-50.754 -16.891)"/>
        <path id="Path_242" data-name="Path 242" class="cls-4" d="M394.131,21.2a4.878,4.878,0,1,0,4.878,4.878,4.878,4.878,0,0,0-4.878-4.878Zm0,1.463a1.463,1.463,0,1,1-1.463,1.463,1.463,1.463,0,0,1,1.463-1.463Zm0,7.044a3.553,3.553,0,0,1-2.927-1.562c.023-.976,1.951-1.512,2.927-1.512s2.9.537,2.927,1.512A3.559,3.559,0,0,1,394.131,29.707Z" transform="translate(-310.139 -16.891)"/>
        <rect id="Rectangle_9" data-name="Rectangle 9" class="cls-5" width="11.381" height="11.381" rx="5.691" transform="translate(45.236 25.027)"/>
        <rect id="Rectangle_12" data-name="Rectangle 12" class="cls-4" width="11.381" height="11.381" rx="5.691" transform="translate(78.302 24.99)"/>
        <rect id="Rectangle_13" data-name="Rectangle 13" class="cls-2" width="8.292" height="8.291" transform="translate(79.928 26.571)"/>
        <path id="Path_202" data-name="Path 202" class="cls-2" d="M242.293,143.951l-1.438-1.849.836-.65.681.875,2.3-2.428.769.729Z" transform="translate(-191.9 -111.467)"/>
        <path id="Path_203" data-name="Path 203" class="cls-4" d="M405.259,143.951l-1.438-1.849.836-.65.681.875,2.3-2.428.769.729Z" transform="translate(-321.746 -111.467)"/>
        <rect id="Rectangle_18" data-name="Rectangle 18" class="cls-4" width="11.381" height="11.381" rx="5.691" transform="translate(12.14 24.99)"/>
        <rect id="Rectangle_19" data-name="Rectangle 19" class="cls-2" width="8.292" height="8.291" transform="translate(13.766 26.571)"/>
        <path id="Path_243" data-name="Path 243" class="cls-4" d="M79.712,143.951,78.274,142.1l.836-.65.681.875,2.3-2.428.769.729Z" transform="translate(-62.361 -111.467)"/>
      </g>
    </g>
    <line id="선_122" data-name="선 122" class="cls-7" x2="308" transform="translate(60 524.5)"/>
  </g>
</svg>
