<svg xmlns="http://www.w3.org/2000/svg" width="1351" height="1351" viewBox="0 0 1351 1351">
  <defs>
    <style>
      .cls-1 {
        fill: #f3f3ff;
      }

      .cls-2 {
        fill: #fff;
      }

      .cls-3, .cls-4 {
        fill: #000070;
      }

      .cls-3 {
        font-size: 60px;
        font-family: NotoSansKR-Regular, Noto Sans KR;
        letter-spacing: -0.025em;
      }

      .cls-5 {
        fill: #3f3d56;
      }

      .cls-6 {
        fill: #e6e6e6;
      }

      .cls-7 {
        fill: #ccc;
      }
    </style>
  </defs>
  <g id="그룹_121" data-name="그룹 121" transform="translate(-285 187)">
    <circle id="타원_340" data-name="타원 340" class="cls-1" cx="675.5" cy="675.5" r="675.5" transform="translate(285 -187)"/>
    <circle id="타원_343" data-name="타원 343" class="cls-2" cx="511" cy="511" r="511" transform="translate(449 -22)"/>
    <text id="제출이_완료되었습니다" data-name="제출이 완료되었습니다" class="cls-3" transform="translate(685 176.874)"><tspan x="0" y="0">제출이 완료되었습니다</tspan></text>
    <g id="그룹_108" data-name="그룹 108" transform="translate(419.35 279)">
      <path id="패스_552" data-name="패스 552" class="cls-4" d="M873.112.278,824.265,29.26l-.634.377a2,2,0,0,0,.306,3.586l46.607,17.825a2,2,0,0,0,1.833-.214,1.982,1.982,0,0,0,.874-1.628l.244-22.249a1.166,1.166,0,0,1,.373-.855,1.2,1.2,0,0,1,1.207-.271l6.245,2.119A1.951,1.951,0,0,0,883.6,27.2l.009-.013a1.954,1.954,0,0,0-.127-2.414l-8.646-10.243a1.222,1.222,0,0,1-.238-.436,1.292,1.292,0,0,1-.033-.5L876.11,2.269a2,2,0,0,0-3-1.991Zm2.209,1.883-1.544,11.323a1.978,1.978,0,0,0-.014.442L825,30.2a.724.724,0,0,0-.125.054.8.8,0,0,0,.48,1.5l47.45-5.452a1.925,1.925,0,0,0-.112.646L872.451,49.2a1.2,1.2,0,0,1-1.624,1.106L824.22,32.477a1.2,1.2,0,0,1-.182-2.151l.65-.385L873.519.968a1.2,1.2,0,0,1,1.8,1.192Z"/>
      <path id="패스_553" data-name="패스 553" class="cls-4" d="M873.112.278,824.265,29.26l-.634.377a2,2,0,0,0,.306,3.586l46.607,17.825a2,2,0,0,0,1.833-.214,1.982,1.982,0,0,0,.874-1.628l.244-22.249a1.166,1.166,0,0,1,.373-.855,1.2,1.2,0,0,1,1.207-.271l6.245,2.119A1.951,1.951,0,0,0,883.6,27.2l.009-.013a1.954,1.954,0,0,0-.127-2.414l-8.646-10.243a1.222,1.222,0,0,1-.238-.436,1.292,1.292,0,0,1-.033-.5L876.11,2.269a2,2,0,0,0-3-1.991Zm2.209,1.883-1.544,11.323a1.978,1.978,0,0,0-.014.442,1.917,1.917,0,0,0,.071.389,1.884,1.884,0,0,0,.152.376l0,0a1.985,1.985,0,0,0,.239.35l8.647,10.243a1.159,1.159,0,0,1,.077,1.447l0,.007a1.164,1.164,0,0,1-1.37.456l-6.247-2.122a1.993,1.993,0,0,0-1.908.351l0,0c-.035.029-.07.059-.1.09a1.946,1.946,0,0,0-.511.782,1.9,1.9,0,0,0-.112.646L872.452,49.2a1.2,1.2,0,0,1-1.624,1.106L824.221,32.477a1.2,1.2,0,0,1-.183-2.151l.65-.385L873.52.968a1.2,1.2,0,0,1,1.8,1.192Z"/>
      <path id="패스_554" data-name="패스 554" class="cls-4" d="M873.947,13.863l.253.758-.211.073,0,0-48.72,16.267,48.154-5.529,0,0,.129-.013.093.793-.838.1-47.45,5.452a.8.8,0,0,1-.48-1.5A.724.724,0,0,1,825,30.2l48.761-16.276Z"/>
    </g>
    <g id="그룹_110" data-name="그룹 110" transform="translate(-618.011 24.711)">
      <g id="그룹_109" data-name="그룹 109" transform="translate(916.178 246.825)">
        <path id="패스_555" data-name="패스 555" class="cls-2" d="M911.942,128.073h-.173l-99.88,42.648L675.234,229.074a4.409,4.409,0,0,1-3.375.018L530.87,170.6,428.538,128.141l-.156-.068h-.175a6.1,6.1,0,0,0-6.09,6.09V398.651a6.1,6.1,0,0,0,6.09,6.09H911.942a6.1,6.1,0,0,0,6.09-6.09V134.163A6.1,6.1,0,0,0,911.942,128.073Z" transform="translate(0.371 47.894)"/>
        <path id="패스_556" data-name="패스 556" class="cls-5" d="M911.264,177.706a.871.871,0,0,1-.5-.156L670.153,9.98a4.362,4.362,0,0,0-4.983.008l-238.88,167.56a.871.871,0,0,1-1-1.425L664.17,8.564a6.112,6.112,0,0,1,6.979-.011l240.613,167.57a.87.87,0,0,1-.5,1.584Z" transform="translate(1.484 0)"/>
        <path id="패스_557" data-name="패스 557" class="cls-6" d="M435.67,181.589,663.627,12.645,893.314,193.61l-217.942,129.2-118.323-26.97Z" transform="translate(5.753 2.057)"/>
        <path id="패스_560" data-name="패스 560" class="cls-2" d="M641.8,271.273a6.57,6.57,0,0,1-2.5-.489L498.714,212.449V29.854a6.1,6.1,0,0,1,6.09-6.09H774.513a6.1,6.1,0,0,1,6.09,6.09V212.578l-.264.113L644.37,270.756A6.612,6.612,0,0,1,641.8,271.273Z" transform="translate(30.788 6.473)"/>
        <path id="패스_561" data-name="패스 561" class="cls-5" d="M641.922,271.831a7.013,7.013,0,0,1-2.661-.521L498.4,212.864V29.977a6.533,6.533,0,0,1,6.526-6.524H774.637a6.532,6.532,0,0,1,6.524,6.524v183.01l-136.5,58.291A7.055,7.055,0,0,1,641.922,271.831ZM500.143,211.7l139.781,58a5.326,5.326,0,0,0,4.061-.024l135.436-57.839V29.977a4.791,4.791,0,0,0-4.785-4.785H504.928a4.79,4.79,0,0,0-4.785,4.785Z" transform="translate(30.664 6.349)"/>
        <path id="패스_562" data-name="패스 562" class="cls-5" d="M911.008,128.073h-.175l-99.879,42.648L674.3,229.074a4.409,4.409,0,0,1-3.375.018L529.936,170.6,427.6,128.141l-.156-.068h-.175a6.1,6.1,0,0,0-6.09,6.09V398.651a6.1,6.1,0,0,0,6.09,6.09H911.008a6.1,6.1,0,0,0,6.09-6.09V134.163A6.1,6.1,0,0,0,911.008,128.073Zm4.351,270.578A4.352,4.352,0,0,1,911.008,403H427.273a4.352,4.352,0,0,1-4.351-4.349V134.163a4.361,4.361,0,0,1,4.186-4.351l102.828,42.666L670.254,230.7a6.2,6.2,0,0,0,4.733-.027l135.967-58.066,100.228-42.8a4.365,4.365,0,0,1,4.176,4.351Z" transform="translate(0 47.894)"/>
        <path id="패스_563" data-name="패스 563" class="cls-4" d="M614.64,76.576h-95.7a6.96,6.96,0,0,1,0-13.921h95.7a6.96,6.96,0,0,1,0,13.921Z" transform="translate(36.058 21.916)"/>
        <path id="패스_564" data-name="패스 564" class="cls-4" d="M565.052,55.4H518.94a6.96,6.96,0,0,1,0-13.921h46.111a6.96,6.96,0,1,1,0,13.921Z" transform="translate(36.056 13.509)"/>
        <path id="패스_565" data-name="패스 565" class="cls-7" d="M694.35,126.395H548.185a6.96,6.96,0,0,1,0-13.921H694.35a6.96,6.96,0,0,1,0,13.921Z" transform="translate(47.675 41.7)"/>
        <path id="패스_566" data-name="패스 566" class="cls-7" d="M694.354,149.436H548.189a6.96,6.96,0,0,1,0-13.921H694.354a6.96,6.96,0,0,1,0,13.921Z" transform="translate(47.67 50.849)"/>
        <circle id="타원_344" data-name="타원 344" class="cls-4" cx="66.183" cy="66.183" r="66.183" transform="translate(842.128 112.306)"/>
        <path id="패스_567" data-name="패스 567" class="cls-2" d="M770.969,165.74,751.161,140.27l11.519-8.96,9.379,12.06,31.685-33.448,10.6,10.038Z" transform="translate(131.034 40.686)"/>
      </g>
      <g id="Group_16" data-name="Group 16" transform="translate(1471.1 601.977)">
        <path id="Path_204" data-name="Path 204" class="cls-6" d="M21.6,43.218A21.609,21.609,0,0,1,21.57,0h196.7a21.609,21.609,0,0,1,0,43.217Z" transform="translate(0.026 -0.001)"/>
        <path id="Path_205" data-name="Path 205" class="cls-2" d="M24.676,5.887a18.79,18.79,0,0,0,0,37.58H221.347a18.79,18.79,0,0,0,0-37.58Z" transform="translate(-3.055 -3.068)"/>
        <rect id="Rectangle_15" data-name="Rectangle 15" class="cls-6" width="0.626" height="37.58" transform="translate(80.653 2.818)"/>
        <rect id="Rectangle_17" data-name="Rectangle 17" class="cls-6" width="0.626" height="37.58" transform="translate(158.633 2.818)"/>
        <rect id="Rectangle_7" data-name="Rectangle 7" class="cls-4" width="77.353" height="37.58" transform="translate(81.28 2.818)"/>
        <path id="Path_198" data-name="Path 198" class="cls-2" d="M238.049,21.2a11.492,11.492,0,1,0,11.492,11.492A11.492,11.492,0,0,0,238.049,21.2Zm0,3.448a3.448,3.448,0,1,1-3.448,3.448,3.448,3.448,0,0,1,3.448-3.448Zm0,16.6a8.371,8.371,0,0,1-6.9-3.68c.055-2.3,4.6-3.564,6.9-3.564s6.84,1.265,6.9,3.564A8.385,8.385,0,0,1,238.049,41.245Z" transform="translate(-118.058 -11.048)"/>
        <path id="Path_200" data-name="Path 200" class="cls-6" d="M75.2,21.2A11.492,11.492,0,1,0,86.691,32.691,11.492,11.492,0,0,0,75.2,21.2Zm0,3.448a3.448,3.448,0,1,1-3.448,3.448A3.448,3.448,0,0,1,75.2,24.647Zm0,16.6a8.371,8.371,0,0,1-6.9-3.68c.055-2.3,4.6-3.564,6.9-3.564s6.84,1.265,6.9,3.564A8.385,8.385,0,0,1,75.2,41.245Z" transform="translate(-33.188 -11.048)"/>
        <path id="Path_242" data-name="Path 242" class="cls-6" d="M400.745,21.2a11.492,11.492,0,1,0,11.492,11.492A11.492,11.492,0,0,0,400.745,21.2Zm0,3.448a3.448,3.448,0,1,1-3.448,3.448,3.448,3.448,0,0,1,3.448-3.448Zm0,16.6a8.371,8.371,0,0,1-6.9-3.68c.055-2.3,4.6-3.564,6.9-3.564s6.84,1.265,6.9,3.564A8.385,8.385,0,0,1,400.745,41.245Z" transform="translate(-202.847 -11.048)"/>
        <rect id="Rectangle_9" data-name="Rectangle 9" class="cls-4" width="26.816" height="26.816" rx="6" transform="translate(106.584 58.967)"/>
        <rect id="Rectangle_12" data-name="Rectangle 12" class="cls-6" width="26.816" height="26.816" rx="6" transform="translate(184.493 58.881)"/>
        <rect id="Rectangle_13" data-name="Rectangle 13" class="cls-2" width="19.536" height="19.536" transform="translate(188.323 62.606)"/>
        <path id="Path_202" data-name="Path 202" class="cls-2" d="M244.243,149.447l-3.388-4.358,1.97-1.532,1.6,2.062,5.42-5.72,1.812,1.717Z" transform="translate(-125.509 -72.909)"/>
        <path id="Path_203" data-name="Path 203" class="cls-6" d="M407.209,149.447l-3.388-4.358,1.97-1.532,1.6,2.062,5.419-5.72,1.812,1.717Z" transform="translate(-210.439 -72.909)"/>
        <rect id="Rectangle_18" data-name="Rectangle 18" class="cls-6" width="26.816" height="26.816" rx="6" transform="translate(28.604 58.881)"/>
        <rect id="Rectangle_19" data-name="Rectangle 19" class="cls-2" width="19.536" height="19.536" transform="translate(32.435 62.606)"/>
        <path id="Path_243" data-name="Path 243" class="cls-6" d="M81.662,149.447l-3.388-4.358,1.97-1.532,1.6,2.062,5.419-5.72,1.812,1.717Z" transform="translate(-40.78 -72.909)"/>
      </g>
    </g>
    <g id="그룹_107" data-name="그룹 107" transform="translate(320.854 124.103) rotate(14)">
      <path id="패스_549" data-name="패스 549" class="cls-4" d="M329.336,47.278a2,2,0,0,0-3,1.991l1.543,11.324a1.292,1.292,0,0,1-.033.5,1.236,1.236,0,0,1-.237.436l-8.647,10.243a1.954,1.954,0,0,0-.127,2.414l.009.013a1.951,1.951,0,0,0,2.282.752l6.245-2.119a1.2,1.2,0,0,1,1.207.271,1.165,1.165,0,0,1,.373.855l.244,22.249a1.982,1.982,0,0,0,.874,1.628,2,2,0,0,0,1.833.214l46.607-17.825a2,2,0,0,0,.306-3.586l-.634-.377L329.336,47.278Zm-2.208,1.883a1.2,1.2,0,0,1,1.8-1.193l48.831,28.973.65.385a1.2,1.2,0,0,1-.182,2.151L331.622,97.3A1.2,1.2,0,0,1,330,96.2l-.244-22.249a1.9,1.9,0,0,0-.111-.646l47.45,5.452a.8.8,0,0,0,.48-1.5.725.725,0,0,0-.125-.054L328.686,60.926a1.921,1.921,0,0,0-.015-.442l-1.543-11.323Z"/>
      <path id="패스_550" data-name="패스 550" class="cls-4" d="M329.336,47.278a2,2,0,0,0-3,1.991l1.543,11.324a1.292,1.292,0,0,1-.033.5,1.236,1.236,0,0,1-.237.436l-8.647,10.243a1.954,1.954,0,0,0-.127,2.414l.009.013a1.951,1.951,0,0,0,2.282.752l6.245-2.119a1.2,1.2,0,0,1,1.207.271,1.165,1.165,0,0,1,.373.855l.244,22.249a1.982,1.982,0,0,0,.874,1.628,2,2,0,0,0,1.833.214l46.607-17.825a2,2,0,0,0,.306-3.586l-.634-.377L329.336,47.278Zm-2.208,1.883a1.2,1.2,0,0,1,1.8-1.193l48.831,28.973.65.385a1.2,1.2,0,0,1-.182,2.151L331.622,97.3A1.2,1.2,0,0,1,330,96.2l-.244-22.249a1.9,1.9,0,0,0-.111-.646,1.959,1.959,0,0,0-.512-.782c-.032-.031-.067-.061-.1-.09l0,0a1.992,1.992,0,0,0-1.908-.351L320.871,74.2a1.164,1.164,0,0,1-1.37-.456l0-.007a1.159,1.159,0,0,1,.077-1.447l8.647-10.243a1.986,1.986,0,0,0,.239-.35l0,0a1.965,1.965,0,0,0,.208-1.208l-1.543-11.323Z"/>
      <path id="패스_551" data-name="패스 551" class="cls-4" d="M328.686,60.926,377.446,77.2a.665.665,0,0,1,.125.054.8.8,0,0,1-.479,1.5L329.642,73.3l-.838-.1.092-.793.13.013,0,0,48.154,5.529L328.463,61.691l0,0-.21-.073.253-.758Z"/>
    </g>
    <g id="그룹_107-2" data-name="그룹 107" transform="translate(292.469 764.649) rotate(-43)">
      <path id="패스_549-2" data-name="패스 549" class="cls-4" d="M329.336,47.278a2,2,0,0,0-3,1.991l1.543,11.324a1.292,1.292,0,0,1-.033.5,1.236,1.236,0,0,1-.237.436l-8.647,10.243a1.954,1.954,0,0,0-.127,2.414l.009.013a1.951,1.951,0,0,0,2.282.752l6.245-2.119a1.2,1.2,0,0,1,1.207.271,1.165,1.165,0,0,1,.373.855l.244,22.249a1.982,1.982,0,0,0,.874,1.628,2,2,0,0,0,1.833.214l46.607-17.825a2,2,0,0,0,.306-3.586l-.634-.377L329.336,47.278Zm-2.208,1.883a1.2,1.2,0,0,1,1.8-1.193l48.831,28.973.65.385a1.2,1.2,0,0,1-.182,2.151L331.622,97.3A1.2,1.2,0,0,1,330,96.2l-.244-22.249a1.9,1.9,0,0,0-.111-.646l47.45,5.452a.8.8,0,0,0,.48-1.5.725.725,0,0,0-.125-.054L328.686,60.926a1.921,1.921,0,0,0-.015-.442l-1.543-11.323Z"/>
      <path id="패스_550-2" data-name="패스 550" class="cls-4" d="M329.336,47.278a2,2,0,0,0-3,1.991l1.543,11.324a1.292,1.292,0,0,1-.033.5,1.236,1.236,0,0,1-.237.436l-8.647,10.243a1.954,1.954,0,0,0-.127,2.414l.009.013a1.951,1.951,0,0,0,2.282.752l6.245-2.119a1.2,1.2,0,0,1,1.207.271,1.165,1.165,0,0,1,.373.855l.244,22.249a1.982,1.982,0,0,0,.874,1.628,2,2,0,0,0,1.833.214l46.607-17.825a2,2,0,0,0,.306-3.586l-.634-.377L329.336,47.278Zm-2.208,1.883a1.2,1.2,0,0,1,1.8-1.193l48.831,28.973.65.385a1.2,1.2,0,0,1-.182,2.151L331.622,97.3A1.2,1.2,0,0,1,330,96.2l-.244-22.249a1.9,1.9,0,0,0-.111-.646,1.959,1.959,0,0,0-.512-.782c-.032-.031-.067-.061-.1-.09l0,0a1.992,1.992,0,0,0-1.908-.351L320.871,74.2a1.164,1.164,0,0,1-1.37-.456l0-.007a1.159,1.159,0,0,1,.077-1.447l8.647-10.243a1.986,1.986,0,0,0,.239-.35l0,0a1.965,1.965,0,0,0,.208-1.208l-1.543-11.323Z"/>
      <path id="패스_551-2" data-name="패스 551" class="cls-4" d="M328.686,60.926,377.446,77.2a.665.665,0,0,1,.125.054.8.8,0,0,1-.479,1.5L329.642,73.3l-.838-.1.092-.793.13.013,0,0,48.154,5.529L328.463,61.691l0,0-.21-.073.253-.758Z"/>
    </g>
  </g>
</svg>
